<svg width="30" height="30" viewBox="0 0 30 30" fill="none" xmlns="http://www.w3.org/2000/svg">
<path d="M4.14453 20.3445C1.87203 22.5765 3.79203 24.8685 0.774027 28.263C-0.587973 29.7975 6.38103 29.3295 9.83253 25.9365C11.298 24.495 10.884 22.398 9.31353 20.853C7.74303 19.311 5.60853 18.903 4.14453 20.3445ZM29.3085 0.988534C28.1445 -0.157466 15.24 10.182 11.4 13.9575C9.49353 15.8325 8.85753 16.8375 8.27403 17.5875C8.01903 17.916 8.35653 18.015 8.50503 18.0915C9.26103 18.4785 9.78903 18.8355 10.4715 19.506C11.1555 20.1765 11.52 20.6955 11.91 21.4395C11.9895 21.5865 12.0915 21.9165 12.423 21.6675C13.188 21.093 14.2095 20.466 16.116 18.594C19.9575 14.82 30.4755 2.13303 29.3085 0.988534Z" fill="black"/>
</svg>
